<svg width="224" height="35" viewBox="0 0 224 35" fill="none" xmlns="http://www.w3.org/2000/svg">
<path d="M48.5191 32.36C47.1191 32.36 45.7991 32.11 44.5591 31.61C43.3391 31.09 42.2791 30.36 41.3791 29.42C40.4991 28.48 39.8391 27.37 39.3991 26.09L43.2091 24.38C43.7691 25.6 44.5391 26.56 45.5191 27.26C46.5191 27.96 47.6191 28.31 48.8191 28.31C49.4591 28.31 50.0091 28.21 50.4691 28.01C50.9291 27.81 51.2891 27.54 51.5491 27.2C51.8091 26.84 51.9391 26.42 51.9391 25.94C51.9391 25.42 51.7791 24.98 51.4591 24.62C51.1391 24.24 50.6391 23.94 49.9591 23.72L45.5791 22.28C43.7991 21.7 42.4591 20.88 41.5591 19.82C40.6591 18.74 40.2091 17.45 40.2091 15.95C40.2091 14.63 40.5291 13.47 41.1691 12.47C41.8291 11.47 42.7391 10.69 43.8991 10.13C45.0791 9.57 46.4291 9.29 47.9491 9.29C49.2891 9.29 50.5291 9.52 51.6691 9.98C52.8091 10.44 53.7891 11.09 54.6091 11.93C55.4491 12.77 56.0791 13.78 56.4991 14.96L52.7191 16.67C52.2991 15.63 51.6691 14.82 50.8291 14.24C49.9891 13.64 49.0291 13.34 47.9491 13.34C47.3291 13.34 46.7791 13.44 46.2991 13.64C45.8191 13.84 45.4491 14.13 45.1891 14.51C44.9291 14.87 44.7991 15.29 44.7991 15.77C44.7991 16.29 44.9691 16.75 45.3091 17.15C45.6491 17.53 46.1591 17.83 46.8391 18.05L51.1291 19.43C52.9291 20.01 54.2691 20.82 55.1491 21.86C56.0491 22.9 56.4991 24.17 56.4991 25.67C56.4991 26.97 56.1591 28.13 55.4791 29.15C54.7991 30.15 53.8591 30.94 52.6591 31.52C51.4791 32.08 50.0991 32.36 48.5191 32.36Z" fill="white"/>
<path d="M67.373 32.18C65.393 32.18 63.853 31.65 62.753 30.59C61.673 29.51 61.133 28.01 61.133 26.09V19.52H58.373V15.62H58.523C59.363 15.62 60.003 15.41 60.443 14.99C60.903 14.57 61.133 13.94 61.133 13.1V11.9H65.633V15.62H69.473V19.52H65.633V25.79C65.633 26.35 65.733 26.82 65.933 27.2C66.133 27.56 66.443 27.83 66.863 28.01C67.283 28.19 67.803 28.28 68.423 28.28C68.563 28.28 68.723 28.27 68.903 28.25C69.083 28.23 69.273 28.21 69.473 28.19V32C69.173 32.04 68.833 32.08 68.453 32.12C68.073 32.16 67.713 32.18 67.373 32.18Z" fill="white"/>
<path d="M77.9899 32.36C76.6699 32.36 75.5399 32.08 74.5999 31.52C73.6799 30.94 72.9799 30.14 72.4999 29.12C72.0199 28.1 71.7799 26.91 71.7799 25.55V15.62H76.2799V25.19C76.2799 25.81 76.3999 26.36 76.6399 26.84C76.8999 27.3 77.2599 27.66 77.7199 27.92C78.1799 28.18 78.6999 28.31 79.2799 28.31C79.8799 28.31 80.3999 28.18 80.8399 27.92C81.2999 27.66 81.6499 27.3 81.8899 26.84C82.1499 26.36 82.2799 25.81 82.2799 25.19V15.62H86.7799V32H82.5799V28.76L82.8199 29.48C82.4399 30.46 81.8199 31.19 80.9599 31.67C80.1199 32.13 79.1299 32.36 77.9899 32.36Z" fill="white"/>
<path d="M97.7789 32.36C96.1789 32.36 94.7489 31.98 93.4889 31.22C92.2289 30.46 91.2289 29.43 90.4889 28.13C89.7689 26.83 89.4089 25.39 89.4089 23.81C89.4089 22.21 89.7789 20.77 90.5189 19.49C91.2589 18.19 92.2589 17.16 93.5189 16.4C94.7789 15.64 96.1889 15.26 97.7489 15.26C98.9489 15.26 100.009 15.49 100.929 15.95C101.869 16.39 102.609 17.02 103.149 17.84L102.459 18.74V9.29H106.959V32H102.759V29L103.179 29.93C102.619 30.73 101.859 31.34 100.899 31.76C99.9389 32.16 98.8989 32.36 97.7789 32.36ZM98.3189 28.31C99.1389 28.31 99.8589 28.12 100.479 27.74C101.099 27.36 101.579 26.83 101.919 26.15C102.279 25.47 102.459 24.69 102.459 23.81C102.459 22.93 102.279 22.15 101.919 21.47C101.579 20.79 101.099 20.26 100.479 19.88C99.8589 19.5 99.1389 19.31 98.3189 19.31C97.4989 19.31 96.7589 19.51 96.0989 19.91C95.4589 20.29 94.9589 20.82 94.5989 21.5C94.2389 22.16 94.0589 22.93 94.0589 23.81C94.0589 24.69 94.2389 25.47 94.5989 26.15C94.9589 26.83 95.4589 27.36 96.0989 27.74C96.7589 28.12 97.4989 28.31 98.3189 28.31Z" fill="white"/>
<path d="M118.144 32.36C116.404 32.36 114.894 31.98 113.614 31.22C112.334 30.44 111.344 29.4 110.644 28.1C109.944 26.8 109.594 25.36 109.594 23.78C109.594 22.14 109.954 20.68 110.674 19.4C111.414 18.12 112.404 17.11 113.644 16.37C114.884 15.63 116.284 15.26 117.844 15.26C119.144 15.26 120.294 15.47 121.294 15.89C122.294 16.29 123.134 16.86 123.814 17.6C124.514 18.34 125.044 19.2 125.404 20.18C125.764 21.14 125.944 22.19 125.944 23.33C125.944 23.65 125.924 23.97 125.884 24.29C125.864 24.59 125.814 24.85 125.734 25.07H113.464V21.77H123.184L121.054 23.33C121.254 22.47 121.244 21.71 121.024 21.05C120.804 20.37 120.414 19.84 119.854 19.46C119.314 19.06 118.644 18.86 117.844 18.86C117.064 18.86 116.394 19.05 115.834 19.43C115.274 19.81 114.854 20.37 114.574 21.11C114.294 21.85 114.184 22.75 114.244 23.81C114.164 24.73 114.274 25.54 114.574 26.24C114.874 26.94 115.334 27.49 115.954 27.89C116.574 28.27 117.324 28.46 118.204 28.46C119.004 28.46 119.684 28.3 120.244 27.98C120.824 27.66 121.274 27.22 121.594 26.66L125.194 28.37C124.874 29.17 124.364 29.87 123.664 30.47C122.984 31.07 122.174 31.54 121.234 31.88C120.294 32.2 119.264 32.36 118.144 32.36Z" fill="white"/>
<path d="M128.594 32V15.62H132.794V18.86L132.554 18.14C132.934 17.16 133.544 16.44 134.384 15.98C135.244 15.5 136.244 15.26 137.384 15.26C138.624 15.26 139.704 15.52 140.624 16.04C141.564 16.56 142.294 17.29 142.814 18.23C143.334 19.15 143.594 20.23 143.594 21.47V32H139.094V22.43C139.094 21.79 138.964 21.24 138.704 20.78C138.464 20.32 138.114 19.96 137.654 19.7C137.214 19.44 136.694 19.31 136.094 19.31C135.514 19.31 134.994 19.44 134.534 19.7C134.074 19.96 133.714 20.32 133.454 20.78C133.214 21.24 133.094 21.79 133.094 22.43V32H128.594Z" fill="white"/>
<path d="M154.443 32.18C152.463 32.18 150.923 31.65 149.823 30.59C148.743 29.51 148.203 28.01 148.203 26.09V19.52H145.443V15.62H145.593C146.433 15.62 147.073 15.41 147.513 14.99C147.973 14.57 148.203 13.94 148.203 13.1V11.9H152.703V15.62H156.543V19.52H152.703V25.79C152.703 26.35 152.803 26.82 153.003 27.2C153.203 27.56 153.513 27.83 153.933 28.01C154.353 28.19 154.873 28.28 155.493 28.28C155.633 28.28 155.793 28.27 155.973 28.25C156.153 28.23 156.343 28.21 156.543 28.19V32C156.243 32.04 155.903 32.08 155.523 32.12C155.143 32.16 154.783 32.18 154.443 32.18Z" fill="white"/>
<path d="M158.52 32V27.8H159.87C160.77 27.8 161.49 27.55 162.03 27.05C162.59 26.53 162.87 25.85 162.87 25.01V9.65H167.52V24.8C167.52 26.24 167.21 27.5 166.59 28.58C165.97 29.66 165.08 30.5 163.92 31.1C162.78 31.7 161.43 32 159.87 32H158.52Z" fill="white"/>
<path d="M179.205 32.36C177.585 32.36 176.105 31.99 174.765 31.25C173.445 30.51 172.385 29.5 171.585 28.22C170.805 26.92 170.415 25.45 170.415 23.81C170.415 22.15 170.805 20.68 171.585 19.4C172.385 18.12 173.445 17.11 174.765 16.37C176.105 15.63 177.585 15.26 179.205 15.26C180.825 15.26 182.295 15.63 183.615 16.37C184.935 17.11 185.985 18.12 186.765 19.4C187.565 20.68 187.965 22.15 187.965 23.81C187.965 25.45 187.565 26.92 186.765 28.22C185.985 29.5 184.935 30.51 183.615 31.25C182.295 31.99 180.825 32.36 179.205 32.36ZM179.205 28.31C180.025 28.31 180.735 28.12 181.335 27.74C181.955 27.36 182.435 26.83 182.775 26.15C183.135 25.47 183.315 24.69 183.315 23.81C183.315 22.93 183.135 22.16 182.775 21.5C182.435 20.82 181.955 20.29 181.335 19.91C180.735 19.51 180.025 19.31 179.205 19.31C178.385 19.31 177.665 19.51 177.045 19.91C176.425 20.29 175.935 20.82 175.575 21.5C175.235 22.16 175.065 22.93 175.065 23.81C175.065 24.69 175.235 25.47 175.575 26.15C175.935 26.83 176.425 27.36 177.045 27.74C177.665 28.12 178.385 28.31 179.205 28.31Z" fill="white"/>
<path d="M199.796 32.36C198.676 32.36 197.636 32.16 196.676 31.76C195.736 31.34 194.976 30.73 194.396 29.93L194.816 29V32H190.616V9.29H195.116V18.74L194.426 17.84C194.966 17.02 195.696 16.39 196.616 15.95C197.556 15.49 198.626 15.26 199.826 15.26C201.386 15.26 202.796 15.64 204.056 16.4C205.316 17.16 206.316 18.19 207.056 19.49C207.796 20.77 208.166 22.21 208.166 23.81C208.166 25.39 207.796 26.83 207.056 28.13C206.336 29.43 205.346 30.46 204.086 31.22C202.826 31.98 201.396 32.36 199.796 32.36ZM199.256 28.31C200.096 28.31 200.836 28.12 201.476 27.74C202.116 27.36 202.616 26.83 202.976 26.15C203.336 25.47 203.516 24.69 203.516 23.81C203.516 22.93 203.336 22.16 202.976 21.5C202.616 20.82 202.116 20.29 201.476 19.91C200.836 19.51 200.096 19.31 199.256 19.31C198.456 19.31 197.736 19.5 197.096 19.88C196.476 20.26 195.986 20.79 195.626 21.47C195.286 22.15 195.116 22.93 195.116 23.81C195.116 24.69 195.286 25.47 195.626 26.15C195.986 26.83 196.476 27.36 197.096 27.74C197.736 28.12 198.456 28.31 199.256 28.31Z" fill="white"/>
<path d="M217.221 32.36C215.421 32.36 213.851 31.94 212.511 31.1C211.191 30.24 210.291 29.09 209.811 27.65L213.111 26.09C213.531 26.97 214.101 27.66 214.821 28.16C215.541 28.66 216.341 28.91 217.221 28.91C217.861 28.91 218.351 28.78 218.691 28.52C219.031 28.26 219.201 27.9 219.201 27.44C219.201 27.2 219.141 27 219.021 26.84C218.901 26.66 218.721 26.5 218.481 26.36C218.241 26.22 217.941 26.1 217.581 26L214.791 25.22C213.451 24.84 212.421 24.23 211.701 23.39C210.981 22.53 210.621 21.52 210.621 20.36C210.621 19.34 210.881 18.45 211.401 17.69C211.921 16.93 212.651 16.34 213.591 15.92C214.531 15.48 215.611 15.26 216.831 15.26C218.431 15.26 219.831 15.64 221.031 16.4C222.251 17.14 223.111 18.19 223.611 19.55L220.281 21.11C220.041 20.43 219.601 19.89 218.961 19.49C218.341 19.07 217.631 18.86 216.831 18.86C216.251 18.86 215.791 18.98 215.451 19.22C215.131 19.46 214.971 19.79 214.971 20.21C214.971 20.43 215.031 20.63 215.151 20.81C215.271 20.99 215.461 21.15 215.721 21.29C216.001 21.43 216.341 21.56 216.741 21.68L219.351 22.46C220.711 22.86 221.751 23.47 222.471 24.29C223.191 25.09 223.551 26.08 223.551 27.26C223.551 28.28 223.281 29.17 222.741 29.93C222.221 30.69 221.491 31.29 220.551 31.73C219.611 32.15 218.501 32.36 217.221 32.36Z" fill="white"/>
<path d="M0.0628026 22.4942L0 12.4896L14.4372 12.446L14.5 22.4507L0.0628026 22.4942Z" fill="white"/>
<path d="M18.1093 22.4398L18.0465 12.4352L32.4837 12.3916L32.5465 22.3963L18.1093 22.4398Z" fill="white"/>
<path d="M0.141306 35L0.0785032 24.9954L32.5622 24.8974L32.625 34.9021L0.141306 35Z" fill="white"/>
<path fill-rule="evenodd" clip-rule="evenodd" d="M20.6212 3.67261C19.3161 1.33992 14.5959 1.25918 13.1264 3.54441L3.94319 17.8246L1.47059 17.061L10.6538 2.78084C13.103 -1.02788 20.97 -0.893304 23.1451 2.99451L31.0389 17.1038L28.5149 17.7819L20.6212 3.67261Z" fill="white"/>
</svg>
